<svg xmlns="http://www.w3.org/2000/svg"><defs><style type="text/css">  
			.land
			{
				fill: #CCCCCC;
				fill-opacity: 1;
				stroke:white;
				stroke-opacity: 1;
				stroke-width:0.5;
			}
		</style></defs><path title="Alaska" class="land" d="M191.8 495.9l2.9 8.4 3-3 9.5 2.4 -0.8 3.9 8.5 4 6.1-1.1 11.7 6.5 11.1 2.4 4.4 2.5 7.9-2.5 8.8 5.4 6.4 2.5 0 0 -0.3 61.9 -0.4 89.8 7.5 0.4 7.5 4.2 5.5 6.6 7.2 9.8 7.2-8.8 7.5-5.3 4.6 7.6 5.7 5.9 7.7 6.3 5.9 10.4 9.9 16.2 15 7.9 1.3 9.3 -3.9 7.6 -5.2-5 -7.9-4 -3.6-12.7 -11.6-11.1 -5.4-13.8 -7.7-0.5 -12.7 0.3 -9.5-4 -16.5-15.4 -7.4-2.9 -13.4-5.6 -10.6 1 -14.6-7.7 -8.5-7.1 -8.6 2.6 0.7 10.8 -4.3 0.6 -9.2 2.3 -7.3 4.4 -8.9 2.2v-9l5.2-14.5 8.5-3.8 -1.6-4.1 -10.5 7.4 -6.4 9.5L169.6 686l4.6 8.1 -9 9.7 -9.5 4.9 -8.7 3.2 -3.1 6.2 -14 5.2 -3.9 6.4 -10.9 4.3 -5.4-2.3 -8.6 2.3 -9.5 2.9 -8.1 3.1 -15.3 0.3 -0.6-2.7 10.8-4.2 9.2-2.4 10.6-5.8 10.5 0.7 5.3-5.1 13-6.4 2.4-2.6 6.9-4.1 3.5-11 5.6-8.1 -9.8 2.8 -2-3 -5.3 4.6 -3.5-8.6 -3.2 4.9 -1.3-8 -9 4.2 -4.7-1.1 1.5-8.9 2.7-5.1 -3.5-6.5 -10.4 0.4 -4.4-8.6 -4-4.9 2.3-8.4 -3.7-7.9 5.2-7.8 8.1-6.8 4.6-7.1 5.9 0.4 4.1 3.7 7.4-6 4.7 2.5 6.3-3.6 0.3-7.4 -3.1-3.7 6.4-4.9 -4.1-0.8 -7.9 1.7 -2.9 2.9 -4.4-4.7 -9.9-0.8 -8.6-6.4 -0.9-7 -5.4-11.5 10.9-3.8 16.3-3.7 5.2 1.4 -2.9 7.7 13.7 2.8 -2.8-11.1 -6.2-8 -2.3-9.2 -3.9-8.4 -6.8-7.4 5.8-7.5 10.6 2.4 9.3-5.6 3.4-7.7 7.8-6.5 6-0.6 12.3-5.2 4.9 2.2 10.3-7.6L191.8 495.9zM59.3 587.8l3.1 4.3 4.7-0.1 4.1 5.8 6 4.2 -1.1 1.5 -6.2 1.5 -4.1-5 -1.6-3.6 -6.2-1.2 -1.1-1.9L59.3 587.8zM84.1 659l-5.2 1 -4-4.2 -3.2-5.3 8-0.4 5.4 3L84.1 659zM172.8 720.5l-8.9 4.5 -3.6-4.4 -0.2-7.1 8-4.2 4.6-1.7 5.1 1.7 2.8 5.1L172.8 720.5z"/><path title="Alabama" class="land" d="M823.3 403.6L831.4 431 838.5 453 842.1 459.7 844.3 463.5 841.6 467.9 841.4 475.2 843 479.4 843 483.5 842.9 487.2 844.5 490 845.8 492.5 805.8 497.1 794.7 499.5 794.6 501.2 799.6 506.3 799 510.9 797.8 514.2 780 513.2 776.5 478.5 776.8 441.9 777.7 412.3 776 408 799.4 405.8z"/><path title="Arkansas" class="land" d="M746.5 387L746.4 388.9 744.7 392.2 741.7 394.6 741.2 398.4 738.5 401.6 739.1 408.2 737.1 410.4 736.9 412.2 733.6 414.1 733.8 417.4 731.6 423.7 729.5 425.1 726.4 428.4 724.6 433.1 720.9 441.3 720.8 446.7 723.3 452.6 722.6 457.1 706.4 457.1 685.5 458.7 666.9 459.1 667.8 446.2 663.4 446.2 659.7 446.5 658.6 445.1 658.9 425.2 658.9 403.1 654.8 379.1 677.1 379 697.3 378.3 716.6 377.4 737.5 377.6 739.3 380.3 737.3 382.9 735.4 385.5 734.5 387.8z"/><path title="Arizona" class="land" d="M393.2 351.9L374.8 479.3 336.4 473.5 295.5 449.8 269 433.1 271.6 429.2 274.1 429.7 277.1 425.7 274.4 422 274.5 418.5 274.3 414.3 279 410 282.6 400.1 289.1 396.7 286.5 391.7 285 387 284.3 382.8 283.9 379.6 283.9 377.5 286 373.4 286 368.8 286.5 364.4 287.5 359.7 286.5 356.3 288.3 353.8 292.1 354.6 295.3 356.9 297.5 358.2 299.4 355.1 300.4 354.5 303.8 336.6 332.7 341.8 367.1 347.7z"/><path title="California" class="land" d="M227.7 202.3L210 267.9 234.9 306 259.7 342.7 283.9 377.5 283.9 379.6 284.3 382.8 285 387 286.5 391.7 289.1 396.7 282.6 400.1 279 410 274.3 414.3 274.5 418.5 274.4 422 277.1 425.7 274.1 429.7 271.6 429.2 247.2 426.4 225.4 423.2 225.1 414.5 220 401.1 203.6 383 196.4 380.3 190.3 371.3 176.4 365.7 172.7 360.9 173.8 348.3 162.8 321.4 157.2 286.9 159.3 282 153.9 272.6 146.4 250.3 149.6 232 144.6 217.3 153.9 200.6 159.3 181.9z"/><path title="Colorado" class="land" d="M524.3 297.3L522.1 332.2 519.9 365.4 502.4 364.1 480.7 362.3 450 359.2 421.4 355.7 393.2 351.9 406.1 262 423.1 264.4 440.2 266.6 474.4 270.4 491.6 272 525.8 274.6 524.3 296.6z"/><path title="Connecticut" class="land" d="M1034.8 200.9L1038.2 212.9 1038.1 216.3 1031.1 219.4 1021.8 223 1010.1 231.5 1008.8 229 1011.9 225.9 1010.1 224.4 1006.8 207.3 1019.5 204.5z"/><path title="Washington, DC" class="land" d="M963.7 293.4L963.5 292 961.7 290.4 962.9 289.1 965.6 290.9z"/><path title="Delaware" class="land" d="M986.9 264.9L984.9 267.7 986.4 271.9 992.7 283 1000 293.2 988.4 295.8 980.8 267.9 981.7 265.9 983 264.6z"/><path title="Florida" class="land" d="M915.3 488.8L920.5 504.8 931.1 522.2 942.9 537.6 944.4 546.5 957.3 568.2 961.8 588.4 961 609 952.9 614.6 942.2 613.5 937.2 604 928.5 600 914.5 582 902 566.8 898.5 556.1 899.9 541.7 893.4 529.7 878.6 517.9 866.1 510.7 845 523.1 839.7 517.3 819.9 509.1 797.8 514.2 799 510.9 799.6 506.3 794.6 501.2 794.7 499.5 805.8 497.1 845.8 492.5 849.5 498.3 869.3 496.8 901.6 495.6 903.7 499.4 905.9 496.9 904.7 489.1 906.9 487.9 911.1 489z"/><path title="Georgia" class="land" d="M870.5 397.6L868.8 399.8 866.4 404.5 872 407.5 875.4 408.4 879.9 415 882.7 418.7 890.1 423 891.8 425.6 896.8 428.6 899.8 433.6 906.6 437.2 908.8 442.1 910.3 444.4 909.9 446.2 913.9 448 916.5 451.9 917.1 456.2 919 456.8 922.5 457.4 916.9 475.3 915.3 488.8 911.1 489 906.9 487.9 904.7 489.1 905.9 496.9 903.7 499.4 901.6 495.6 869.3 496.8 849.5 498.3 845.8 492.5 844.5 490 842.9 487.2 843 483.5 843 479.4 841.4 475.2 841.6 467.9 844.3 463.5 842.1 459.7 838.5 453 831.4 431 823.3 403.6 837.6 402.1 847.5 400.6z"/><path title="Hawaii" class="land" d="M443.4 612.1l-3 0.1 -1.7-2.4 -0.9-4.3 2.2-0.8 3.3 0.5 3.3 2.9 -0.2 1.6L443.4 612.1zM460.9 640.4l-0.7 3.5 -3-1.4 -0.6-2.4 -1-0.5 -0.5-0.1 -1.9-1.6 1.1-6.3 2.5 1.6 3.8 0.3 -1 5.3L460.9 640.4zM472.4 657.6l-3.5-0.2 -5.9-6.2 2.1-1.4L472.4 657.6zM472.8 661.1l0.4 3.5 3.3 1.6 2 5.7 -0.9 1.3 -2.3 0 -5.2-3 1.4-4.1 -1.8-2 0.4-3.1 1.6-0.7L472.8 661.1zM464.4 705.7l-3.3 1.3 -2.7-4.9 3.9-5.3 2.3-8 7-1.6 0.8-3.4 1.5-1.3 0.9 0.3 6.3 12.3 0.3 3.3 -1.3 2.4 1 1.2 -0.5 1.9 0.8 3.8 -6.6 0.4 -4.8-2.1L464.4 705.7z"/><path title="Iowa" class="land" d="M708.7 219.3L709 220.5 711.4 224 710 225.8 710.3 230.6 711.1 232.5 712.4 236.1 718 238 719.8 241.3 720.9 243 722.9 244 723.9 246.4 726.6 248.1 728.5 249.9 728 256.1 725.2 261.4 724.1 263.1 720.3 264.7 714.5 266.1 713.2 270.1 715.4 271.7 716.4 275.2 714.3 279.3 713.4 282.8 709.1 286.4 709 290.5 706.5 288.7 703 285.2 684.2 286.5 664.3 287.2 648.8 287.5 633.2 287.6 632.1 283.5 632.6 279.5 632.2 275.5 630.4 269 629.3 266.3 628.1 265.5 627.9 260.3 626.9 256.5 623.8 252.2 623.9 250.4 622.8 246.6 622.1 244.3 622.1 242.3 619.4 239.7 620.8 236 621.7 232.4 622.1 229.9 620 226.9 620 221.3 622.2 221.3 640.3 221.3 662.8 220.7 687 219.8z"/><path title="Idaho" class="land" d="M384.7 178.1L385.2 178.6 375.9 234.4 326.1 225.4 276.6 214.4 286.2 174.7 289.1 168.7 288.5 165.5 285.8 163.3 286.7 159.8 290.1 155.3 294.6 151.7 298.5 145 301.9 139.8 304.2 137.3 304.1 133.7 301.9 131.3 299.2 126.1 300.3 122.2 299.7 118.5 306.6 87.3 313.2 58.7 327.8 62 323.7 85.9 326.4 92.7 325.5 96.7 327.5 100.9 330.6 103.8 332.4 107.8 335.2 115.7 338.5 119.8 343.1 120.9 340.4 125.6 337.7 131.2 337.8 137.2 335.7 138.3 334.6 144 337 146.8 340.6 144.8 342.9 142 344.7 143 345.9 146.4 346.3 153.8 348.6 157.2 348.5 163.2 349.1 165.1 352.3 166.2 353.6 169.9 355.3 176.2 358.9 173.7 364 175.5 364.8 173.3 373.6 176.4 377.4 176.3 380.5 172.2 382.1 173.1 383.2 176.5z"/><path title="Illinois" class="land" d="M767.4 238L767.4 238 768.1 243.9 773.7 255.4 773.7 255.4 773.7 255.4 776.1 281.6 778.6 307.7 777.2 314.2 778.8 315.7 780 319.5 780.2 322.5 778.8 324 777.9 327.9 774.7 333.2 772.7 339.4 772.5 344.1 772.8 345.7 771 349.1 772.8 351.1 769.7 353 765.8 355.2 766.9 360.1 764.7 362.2 760.2 360.4 755.3 359.6 754.2 361.9 755.2 365.2 751.7 362 749.8 362.7 747 357.3 747.5 353.9 745.7 348.5 743.9 347.9 738.8 343.3 736.8 343.3 733 340.4 730.3 337.1 731.2 333.1 732.6 329.7 733.4 325.4 729.8 322 726.5 323.7 724.5 322.9 723.9 319.1 722.2 314.9 720.5 313.9 716.3 311.1 712.8 307.4 709.6 302.9 707.7 296.2 709 290.5 709.1 286.4 713.4 282.8 714.3 279.3 716.4 275.2 715.4 271.7 713.2 270.1 714.5 266.1 720.3 264.7 724.1 263.1 725.2 261.4 728 256.1 728.5 249.9 726.6 248.1 723.9 246.4 722.9 244 720.9 243 719.8 241.3 736.9 240.2 754.4 238.9 767.4 238 767.3 238z"/><path title="Indiana" class="land" d="M819.8 251.1L822.3 271.5 824.8 293.4 826.7 309 825.8 310.2 827.8 314.6 827.2 316.4 824.3 316.8 821.8 319.1 817.5 318.8 817.6 323.1 815.3 325.1 813.4 329.2 811 330.2 807.8 337.4 804 335.8 802.6 333.2 799.9 338 798.2 340.7 794.1 338.5 790.2 341 789.1 343.3 783.2 340.4 779.6 343.3 774.9 341.9 774.9 344.4 772.5 344.1 772.7 339.4 774.7 333.2 777.9 327.9 778.8 324 780.2 322.5 780 319.5 778.8 315.7 777.2 314.2 778.6 307.7 776.1 281.6 773.7 255.4 773.7 255.4 775.4 256.8 781.2 256.1 785.5 253.1 785.5 253.1 803.7 251.3 819.6 249.3z"/><path title="Kansas" class="land" d="M654.8 368.7L638.8 368.9 606.1 368.8 573.3 368 555.1 367.4 537 366.5 519.9 365.4 522.1 332.2 524.3 297.3 524.3 297.3 554.7 299.1 577.4 300 617.5 300.8 641.5 300.8 645.7 303.8 648 303.7 648.5 307 646.1 311.2 647.5 313.4 649.7 318.1 654.4 320.2 654.5 344.5z"/><path title="Kentucky" class="land" d="M868.1 319.2L868.7 321.3 869.2 325.9 871.9 329.1 873.3 332.4 876.3 334.9 878.5 337.4 882 337.2 875.9 345 870.7 348.5 870.5 350.3 869 353 864.4 356.4 863.1 358.8 859.6 360.7 854.5 362.7 842.3 365.1 826.2 366.1 821 367 810.5 367.5 799.9 368.5 790.1 369.3 778.7 371 778 370.1 774.4 370.4 774.8 374 748.7 375.8 752.6 373.2 755.4 371.1 754.8 367.5 755.2 365.2 754.2 361.9 755.3 359.6 760.2 360.4 764.7 362.2 766.9 360.1 765.8 355.2 769.7 353 772.8 351.1 771 349.1 772.8 345.7 772.5 344.1 774.9 344.4 774.9 341.9 779.6 343.3 783.2 340.4 789.1 343.3 790.2 341 794.1 338.5 798.2 340.7 799.9 338 802.6 333.2 804 335.8 807.8 337.4 811 330.2 813.4 329.2 815.3 325.1 817.6 323.1 817.5 318.8 821.8 319.1 824.3 316.8 827.2 316.4 827.8 314.6 825.8 310.2 826.7 309 832.7 308.8 836.1 310.5 841.5 315 845.4 316.1 848.4 317.6 852.5 316.4 855.7 317.2 859.3 315.4 862.6 314.6 864.5 317.5z"/><path title="Louisiana" class="land" d="M722.6 457.1L724.1 458.3 722.5 461.7 725.5 466.2 724.9 469.1 727.6 472.9 725 475.3 724.4 479.7 720.8 483.4 719.3 488.3 717.8 493.9 715.5 496.6 716.6 502.2 734 502 752.5 500.9 752.2 504.7 751.2 508.6 752.6 511.4 755.4 513.8 756.4 517.6 756.9 519.8 755.3 529.5 762.5 542.8 734.9 545.5 717.5 541.7 705.7 537.5 690.4 535.1 673 534.9 671.3 531.9 673.3 528.5 676.2 525.4 676.1 520.8 674.6 519.3 676.2 513.8 677.4 511.3 679.1 502.9 677.3 499.8 674.9 494.7 673.1 489.5 671.9 486 668.7 483.5 666.9 459.1 685.5 458.7 706.4 457.1z"/><path title="Massachusetts" class="land" d="M1045.6 177.8L1048.8 189.4 1057.5 199.5 1064.4 198.1 1060.4 190.6 1066.7 194 1067.2 200.6 1057.2 207.4 1049.1 209.2 1047.8 206 1044.5 204.2 1041.7 198.8 1034.8 200.9 1019.5 204.5 1006.8 207.3 1006.5 191.2 1020 188.1 1039.5 183 1040.6 180.4 1043.6 177.9z"/><path title="Maryland" class="land" d="M980.8 267.9L988.4 295.8 1000 293.2 1001.4 294.9 996.5 304.1 992.5 305.3 991.5 307.2 980.2 298.6 975.8 282.1 974.7 290.6 979.1 309.7 967.2 305.4 965.5 302.5 962.9 304 960.3 303.3 961.3 297.9 963.8 295.2 963.7 293.4 965.6 290.9 962.9 289.1 961.7 290.4 957.9 288.6 954 288.1 954.8 285.4 952.2 284.2 949.5 284 947.5 281.4 944.8 278.7 939.1 278 936.1 280.3 934.6 282.3 929.3 282.4 927.5 285.2 924.2 286.7 921.7 289.8 919.4 292.3 917.5 281 933.5 278 938.9 276.9 951.1 274.3 965.7 271.3z"/><path title="Maine" class="land" d="M1047 172.1L1045.3 172.8 1043.7 170 1039.8 167.6 1039.8 165.2 1026.5 125.9 1031.9 120.2 1034.4 108.7 1034.1 90.2 1040.6 70.2 1047.3 74.5 1056.1 67.6 1064.8 71.8 1074.3 101.6 1088.3 110.6 1091.5 119.8 1078.7 131.5 1065.1 141.4 1051.1 159.8z"/><path title="Michigan" class="land" d="M810.3 140.6L810.3 140.6l5.3 0 0 0 -1.7 2.5 9 8L809.3 155l-0.5 0 -12.7-0.9 -11.9 5.9 -10.6 3.2 -8 15.4 -0.4-0.1 0 0 -2.4-2.5 0.9-3.8 -3.5 0.1 0.4-3.8 0.8-1.9 -1.7-3.1 -3.9-1.1 -1.2-3.7 -3.1 0 -4.5 0.3 -9.5-3.4 -14.1-3.1 -1.5-4 -2.5-0.6 0-0.1 -0.9 0.5 -0.1-0.1 0.1 0.1 11.8-6.6 12-8.3 13.1-8.7 -3.9 12.5 9.1 2.1 11.9 7.6 13.4-6.5 15.2-3.8 4.1 6 4.9 0.3L810.3 140.6zM855.9 216L855.9 216l-0.4 0.4 -6 13.5 -2.5 8.4h0l-4.5 9.5 0 0 -6.3 1.1 -7.7 1 -8.6 1.3 -0.2-1.8 -15.9 2 -18.2 1.8v0l0 0 3.1-3.5 5.7-11.7 -1.1-15 -7-13.4 -0.2-9.7 3.1-11.6 3.2-8.1 5.8-6.2 2.4 7.4 1.5-11.5 3.3-2.7 1.2-8.9 14.1 2.8 13 7.2 2.8 10.1 0 10.5 -7.7 10.3 1.6 5.6 3.3-0.2 8.7-11.3 6.4 1.4 4.9 12.6 2.2 9.1L855.9 216z"/><path title="Minnesota" class="land" d="M728.4 114.8L728.4 114.8 713.2 123.4 702.6 133.1 692.5 143.3 692.6 146.7 688.5 148.1 689.2 160.9 688.7 160.9 684.8 163.6 681.5 165.9 679.4 170.2 682.9 174.4 681.9 180.2 682.1 186.3 681.8 191.4 686.7 195.6 688.6 195.7 694 198.7 695.9 200.2 697.2 202.6 701.5 206.3 707.2 209.4 707.8 211.3 708.2 216.7 708.7 219.3 687 219.8 662.8 220.7 640.3 221.3 622.2 221.3 622.5 200 620.7 178.2 617.9 176.4 616.3 172.8 617.2 169.8 620.8 167.2 621.1 163.9 621.2 159.7 620.2 156.3 618.9 152.5 618.2 147.9 618 142.7 617.5 141.4 616.9 134.7 616.9 131.6 616.6 128.8 615.9 124.2 614 119.4 612.3 115.2 612.1 111 611.9 106.5 612.5 103.6 612.6 100.9 611.3 97.6 611.1 95.3 642.5 95.4 642.4 86.5 647.6 86.3 650.4 99 655.2 102.8 665.9 104 681.7 107.1 696.8 113.6 709.1 110 728.4 114.8z"/><path title="Missouri" class="land" d="M709 290.5L707.7 296.2 709.6 302.9 712.8 307.4 716.3 311.1 720.5 313.9 722.2 314.9 723.9 319.1 724.5 322.9 726.5 323.7 729.8 322 733.4 325.4 732.6 329.7 731.2 333.1 730.3 337.1 733 340.4 736.8 343.3 738.8 343.3 743.9 347.9 745.7 348.5 747.5 353.9 747 357.3 749.8 362.7 751.7 362 755.2 365.2 754.8 367.5 755.4 371.1 752.6 373.2 748.7 375.8 748.4 378.1 747.5 381.4 746.5 387 734.5 387.8 735.4 385.5 737.3 382.9 739.3 380.3 737.5 377.6 716.6 377.4 697.3 378.3 677.1 379 654.8 379.1 654.9 368.7 654.8 368.7 654.5 344.5 654.4 320.2 649.7 318.1 647.5 313.4 646.1 311.2 648.5 307 648 303.7 645.7 303.8 641.5 300.8 639.2 296 636.5 293.1 633.6 289.5 633.2 287.6 648.8 287.5 664.3 287.2 684.2 286.5 703 285.2 706.5 288.7z"/><path title="Mississippi" class="land" d="M776 408L777.7 412.3 776.8 441.9 776.5 478.5 780 513.2 768.3 519.3 756.9 519.8 756.4 517.6 755.4 513.8 752.6 511.4 751.2 508.6 752.2 504.7 752.5 500.9 734 502 716.6 502.2 715.5 496.6 717.8 493.9 719.3 488.3 720.8 483.4 724.4 479.7 725 475.3 727.6 472.9 724.9 469.1 725.5 466.2 722.5 461.7 724.1 458.3 722.6 457.1 723.3 452.6 720.8 446.7 720.9 441.3 724.6 433.1 726.4 428.4 729.5 425.1 731.6 423.7 733.8 417.4 733.6 414.1 736.9 412.2 737.1 410.4 755.5 409.1z"/><path title="Montana" class="land" d="M501.8 159.7L499.2 180.5 472.3 177.6 443.4 174.3 418.5 170.6 387 165.9 385.1 177.3 384.7 178.1 383.2 176.5 382.1 173.1 380.5 172.2 377.4 176.3 373.6 176.4 364.8 173.3 364 175.5 358.9 173.7 355.3 176.2 353.6 169.9 352.3 166.2 349.1 165.1 348.5 163.2 348.6 157.2 346.3 153.8 345.9 146.4 344.7 143 342.9 142 340.6 144.8 337 146.8 334.6 144 335.7 138.3 337.8 137.2 337.7 131.2 340.4 125.6 343.1 120.9 338.5 119.8 335.2 115.7 332.4 107.8 330.6 103.8 327.5 100.9 325.5 96.7 326.4 92.7 323.7 85.9 327.8 62 372.2 71.2 416.9 78.9 461.9 85.1 507 89.8 503.5 131.9z"/><path title="North Carolina" class="land" d="M995.2 338.4L1002.8 360 994.8 379 978.7 391.4 965.1 405.9 958.8 408.5 934 391.3 913.5 394.6 913.1 392 909.6 388.7 908 390.5 907.5 388.5 898.7 388.9 881.7 391.4 872.3 396.7 870.5 397.6 847.5 400.6 847.3 395.8 851 393.8 851.9 391.2 854.2 388.2 857.8 387.1 862 385.4 865.9 382.9 867.5 380.7 870.7 378.4 870.4 376.8 874.5 373 876.3 374.8 882.4 369.5 885.6 369.5 887.8 365.3 891.3 363.8 890.6 360.6 890.6 357.7 921.3 353.5 957.1 346.9 976.1 342.8z"/><path title="North Dakota" class="land" d="M611.1 95.3L611.3 97.6 612.6 100.9 612.5 103.6 611.9 106.5 612.1 111 612.3 115.2 614 119.4 615.9 124.2 616.6 128.8 616.9 131.6 616.9 134.7 617.5 141.4 618 142.7 618.2 147.9 618.9 152.5 620.2 156.3 621.2 159.7 621.1 163.9 590.8 164.7 564.9 163.7 532.2 161.9 501.8 159.7 503.5 131.9 507 89.8 559.5 93.6z"/><path title="Nebraska" class="land" d="M622.1 244.3L622.8 246.6 623.9 250.4 623.8 252.2 626.9 256.5 627.9 260.3 628.1 265.5 629.3 266.3 630.4 269 632.2 275.5 632.6 279.5 632.1 283.5 633.2 287.6 633.6 289.5 636.5 293.1 639.2 296 641.5 300.8 617.5 300.8 577.4 300 554.7 299.1 524.3 297.3 524.3 297.3 524.3 296.6 525.8 274.6 491.6 272 495.5 226.8 528 229.3 553 230.8 586.4 232.1 590.7 235.1 596.8 237.1 598.2 236.1 602.2 236.2 608.2 236.1 612.5 239.1 617.1 241 617.8 242.9 619.2 244z"/><path title="New Hampshire" class="land" d="M1047 172.1L1045.6 177.8 1043.6 177.9 1040.6 180.4 1039.5 183 1020 188.1 1018.1 186.2 1018.6 183 1017.4 177.1 1017.6 175.6 1016.7 170.3 1017.3 165.4 1018.1 163.1 1018.6 157.4 1018 153.8 1017.9 151.5 1020.7 149.6 1023.5 146.1 1023.4 143.2 1021.4 140.4 1021.6 133.9 1021.5 133.9 1021.6 128 1026.5 125.9 1039.8 165.2 1039.8 167.6 1043.7 170 1045.3 172.8z"/><path title="New Jersey" class="land" d="M1006 233.1L1002.9 245.3 1007.3 245.2 1008.3 261.8 999.9 281.8 997.3 276.4 993.3 276.1 987.8 271.3 986.4 271.9 984.9 267.7 986.9 264.9 990 262 990.9 260.4 994.2 256.5 995.8 253.6 989.1 249.1 988.3 246.8 986.3 246.6 985.6 243 986.9 239.9 985.3 237.2 987.5 234.6 989.3 229 991.1 227.5z"/><path title="New Mexico" class="land" d="M502.4 364.1L501.6 375.3 497 434.6 493.7 477.4 475.7 475.9 440.9 472.5 423.5 470.5 423.5 472.5 425.2 476.3 391.9 472.2 390.4 481.5 374.8 479.3 393.2 351.9 421.4 355.7 450 359.2 480.7 362.3z"/><path title="Nevada" class="land" d="M326.1 225.4L303.8 336.6 300.4 354.5 299.4 355.1 297.5 358.2 295.3 356.9 292.1 354.6 288.3 353.8 286.5 356.3 287.5 359.7 286.5 364.4 286 368.8 286 373.4 283.9 377.5 259.7 342.7 234.9 306 210 267.9 227.7 202.3 276.6 214.5 276.6 214.4z"/><path title="New York" class="land" d="M1006.5 191.2L1006.8 207.3 1010.1 224.4 1011.9 225.9 1008.8 229 1010.1 231.5 1032.9 222.5 1038.9 225.3 1017.3 238 1006.6 240.7 1006 233.1 991.1 227.5 988 226.6 984.8 225.7 983 222.8 982.9 220.2 980.4 218.7 976 216.1 953.6 221 929.4 226 903.4 231 902.3 224.9 914.1 208.9 913.3 206.9 913.3 206.8 909.9 200.8 917.8 196.3 930.8 194.6 944.5 193.7 955.1 183.7 952.2 175.3 949.6 172.2 949.5 172.2 949.6 172.2 949.6 172.2 962.7 153.3 968.8 147.6 992.7 141.5 993.5 146.1 993.6 149.1 995.7 155.6 997.4 158.7 996.9 163.7 999.9 169.1 999.7 172.6 1000.2 173.3 1002.5 172.9z"/><path title="Ohio" class="land" d="M896 263.6L893.8 265.1 895 267.8 895.1 273.1 894.3 279.2 893.5 284.4 893.6 286.7 889.7 292.6 887.9 294 885.6 295 883.5 294.9 880.2 299.3 880.1 303.5 879.9 305.8 878.5 306.9 877.9 304.4 875.4 304.2 873.7 309.5 874.2 314.5 872.4 318 868.1 319.2 864.5 317.5 862.6 314.6 859.3 315.4 855.7 317.2 852.5 316.4 848.4 317.6 845.4 316.1 841.5 315 836.1 310.5 832.7 308.8 826.7 309 824.8 293.4 822.3 271.5 819.8 251.1 828.4 249.8 836.1 248.8 842.4 247.7 842.4 247.7 842.4 247.7 853.5 250.9 862.1 250.8 873.8 245.9 882.8 238.1 890.9 233.6z"/><path title="Oklahoma" class="land" d="M654.8 379.1L658.9 403.1 658.9 425.2 658.6 445.1 650.4 440.7 645.1 438.4 640.8 439.9 634.1 439.7 630.1 439.8 626.9 441.6 623.7 442.6 620.9 441.4 614.6 442.6 611.7 438.8 608.7 442 603.6 440.5 598.3 436.9 592.6 439 590.2 433.5 581.4 433.8 575.8 432.4 569.5 430.6 566.9 425.8 561.9 427.1 558.9 425.1 554.5 422.5 555.5 400.9 556.5 378.6 538.2 377.7 519.9 376.6 501.6 375.3 502.4 364.1 519.9 365.4 537 366.5 555.1 367.4 573.3 368 606.1 368.8 638.8 368.9 654.8 368.7 654.9 368.7z"/><path title="Oregon" class="land" d="M299.2 126.1L301.9 131.3 304.1 133.7 304.2 137.3 301.9 139.8 298.5 145 294.6 151.7 290.1 155.3 286.7 159.8 285.8 163.3 288.5 165.5 289.1 168.7 286.2 174.7 276.6 214.4 276.6 214.5 227.7 202.3 159.3 181.9 158 168.1 170.4 146.4 179.3 122.3 192.5 90.3 195.7 91 200.3 92.6 203.4 95.7 207.4 98.3 209 103.4 208.3 107.2 208.5 110.6 211.8 112.5 215.6 113.5 222.2 113 225.9 113.3 231.1 115.8 233.2 117.6 236.7 117.8 240.7 117 247.6 119.2 254 118.3 257.4 117.3 261.1 119.3 267.3 118.4z"/><path title="Pennsylvania" class="land" d="M991.1 227.5L989.3 229 987.5 234.6 985.3 237.2 986.9 239.9 985.6 243 986.3 246.6 988.3 246.8 989.1 249.1 995.8 253.6 994.2 256.5 990.9 260.4 990 262 986.9 264.9 983 264.6 981.7 265.9 980.8 267.9 965.7 271.3 951.1 274.3 938.9 276.9 933.5 278 917.5 281 899.5 284.2 896 263.6 890.9 233.6 890.9 233.6 902.3 224.9 902.3 224.9 903.4 231 929.4 226 953.6 221 976 216.1 980.4 218.7 982.9 220.2 983 222.8 984.8 225.7 988 226.6z"/><path title="Rhode Island" class="land" d="M1049.1 209.2L1038.1 216.3 1038.2 212.9 1034.8 200.9 1041.7 198.8 1044.5 204.2 1047.8 206z"/><path title="South Carolina" class="land" d="M958.8 408.5L954.4 425.6 940.5 442.5 922.5 457.4 919 456.8 917.1 456.2 916.5 451.9 913.9 448 909.9 446.2 910.3 444.4 908.8 442.1 906.6 437.2 899.8 433.6 896.8 428.6 891.8 425.6 890.1 423 882.7 418.7 879.9 415 875.4 408.4 872 407.5 866.4 404.5 868.8 399.8 870.5 397.6 872.3 396.7 881.7 391.4 898.7 388.9 907.5 388.5 908 390.5 909.6 388.7 913.1 392 913.5 394.6 934 391.3z"/><path title="South Dakota" class="land" d="M622.2 221.3L620 221.3 620 226.9 622.1 229.9 621.7 232.4 620.8 236 619.4 239.7 622.1 242.3 622.1 244.3 619.2 244 617.8 242.9 617.1 241 612.5 239.1 608.2 236.1 602.2 236.2 598.2 236.1 596.8 237.1 590.7 235.1 586.4 232.1 553 230.8 528 229.3 495.5 226.8 499.2 180.5 501.8 159.7 532.2 161.9 564.9 163.7 590.8 164.7 621.1 163.9 620.8 167.2 617.2 169.8 616.3 172.8 617.9 176.4 620.7 178.2 622.5 200z"/><path title="Tennessee" class="land" d="M854.5 362.7L881.5 359.6 890.6 357.7 890.6 360.6 891.3 363.8 887.8 365.3 885.6 369.5 882.4 369.5 876.3 374.8 874.5 373 870.4 376.8 870.7 378.4 867.5 380.7 865.9 382.9 862 385.4 857.8 387.1 854.2 388.2 851.9 391.2 851 393.8 847.3 395.8 847.5 400.6 837.6 402.1 823.3 403.6 799.4 405.8 776 408 755.5 409.1 737.1 410.4 739.1 408.2 738.5 401.6 741.2 398.4 741.7 394.6 744.7 392.2 746.4 388.9 746.5 387 747.5 381.4 748.4 378.1 748.7 375.8 774.8 374 774.4 370.4 778 370.1 778.7 371 790.1 369.3 799.9 368.5 810.5 367.5 821 367 826.2 366.1 842.3 365.1z"/><path title="Texas" class="land" d="M658.6 445.1L659.7 446.5 663.4 446.2 667.8 446.2 666.9 459.1 668.7 483.5 671.9 486 673.1 489.5 674.9 494.7 677.3 499.8 679.1 502.9 677.4 511.3 676.2 513.8 674.6 519.3 676.1 520.8 676.2 525.4 673.3 528.5 671.3 531.9 673 534.9 656 540 637.8 557.2 617.6 567.1 606.4 578 601.5 588.3 601 604.3 601.9 615.4 605.8 623.4 597.6 623.9 582.8 618.5 566.7 610.9 561.3 599.8 557.3 583.5 545.8 569.8 539.4 556 530.1 539.8 516.5 529.8 500.2 529.2 486.2 546.3 470.1 538.1 460.4 530.2 456.6 517.2 451.2 504.7 440.6 493.5 431.4 485.2 425.2 476.3 423.5 472.5 423.5 470.5 440.9 472.5 475.7 475.9 493.7 477.4 497 434.6 501.6 375.3 519.9 376.6 538.2 377.7 556.5 378.6 555.5 400.9 554.5 422.5 558.9 425.1 561.9 427.1 566.9 425.8 569.5 430.6 575.8 432.4 581.4 433.8 590.2 433.5 592.6 439 598.3 436.9 603.6 440.5 608.7 442 611.7 438.8 614.6 442.6 620.9 441.4 623.7 442.6 626.9 441.6 630.1 439.8 634.1 439.7 640.8 439.9 645.1 438.4 650.4 440.7z"/><path title="Utah" class="land" d="M406.1 262L393.2 351.9 367.1 347.7 332.7 341.8 303.8 336.6 326.1 225.4 375.9 234.4 372.2 256.2z"/><path title="Virginia" class="land" d="M949.5 284l2.7 0.2 2.6 1.2 -0.8 2.7 3.9 0.6 3.8 1.8 1.8 1.6 0.2 1.3 0.1 1.9 -2.5 2.7 -0.9 5.4 2.6 0.7 2.6-1.6 1.7 2.9 13.7 10 5.7 9.8 0.4 0.6 8.2 12.6 -19.2 4.3 -18.9 4.1 -35.9 6.7 -30.6 4.2 -9.1 1.9 -27 3.1 5.1-2 3.5-1.9 1.3-2.4 4.6-3.4 1.6-2.6 0.2-1.9 5.2-3.5 6.1-7.8 1.4 3.7 2.3 1.7 3 1.4 5.2-3.6 2.4 1.2 6.4-3 0.1-2.1 2.2 0.5 1.9-2 2.5-0.1 2.5-2.2 0-2.1L911.2 328l1.7-4.3 2.9-3.5 0.3-3.4 2.3-4.5 0.8-5.2 2.6 1.3 2.9 1.1 2.4-1.3 0.5-2.2 1.2-3.1 1.3-3.5 1.4 0.7 2-3.4 2.8-3.6 1.7-2.6 0.2-6.2 10 4.3L949.5 284zM988.8 323.5l1.8 0.5 5.9-19.9 -4 1.3 -1 1.8L988.8 323.5z"/><path title="Vermont" class="land" d="M1020 188.1L1006.5 191.2 1002.5 172.9 1000.2 173.3 999.7 172.6 999.9 169.1 996.9 163.7 997.4 158.7 995.7 155.6 993.6 149.1 993.5 146.1 992.7 141.5 1021.5 133.9 1021.6 133.9 1021.4 140.4 1023.4 143.2 1023.5 146.1 1020.7 149.6 1017.9 151.5 1018 153.8 1018.6 157.4 1018.1 163.1 1017.3 165.4 1016.7 170.3 1017.6 175.6 1017.4 177.1 1018.6 183 1018.1 186.2z"/><path title="Washington" class="land" d="M313.2 58.7L306.6 87.3 299.7 118.5 300.3 122.2 299.2 126.1 267.3 118.4 261.1 119.3 257.4 117.3 254 118.3 247.6 119.2 240.7 117 236.7 117.8 233.2 117.6 231.1 115.8 225.9 113.3 222.2 113 215.6 113.5 211.8 112.5 208.5 110.6 208.3 107.2 209 103.4 207.4 98.3 203.4 95.7 200.3 92.6 195.7 91 192.5 90.3 194.2 70.9 198.5 49.1 217.8 59.5 219.1 78.7 224.6 74 227.6 55.3 226.2 35 269.5 47.6z"/><path title="Wisconsin" class="land" d="M718 148.3L718.2 148.4 719.1 147.9 719.1 148 721.7 148.6 723.2 152.6 737.3 155.7 746.8 159.1 751.3 158.8 754.4 158.8 755.6 162.5 759.5 163.6 761.2 166.6 760.4 168.6 760 172.3 763.6 172.2 762.7 176 765.1 178.5 765.1 178.4 765.5 178.5 765.4 178.8 759.8 187.5 762.3 190 772.7 174.3 775.1 174 768.5 192.2 766.2 208.4 764.3 221.5 767.3 232.4 767.4 238 767.3 238 767.4 238 754.4 238.9 736.9 240.2 719.8 241.3 718 238 712.4 236.1 711.1 232.5 710.3 230.6 710 225.8 711.4 224 709 220.5 708.7 219.3 708.2 216.7 707.8 211.3 707.2 209.4 701.5 206.3 697.2 202.6 695.9 200.2 694 198.7 688.6 195.7 686.7 195.6 681.8 191.4 682.1 186.3 681.9 180.2 682.9 174.4 679.4 170.2 681.5 165.9 684.8 163.6 688.7 160.9 689.2 160.9 688.5 148.1 692.6 146.7 692.6 146.7 708.1 141.1z"/><path title="West Virginia" class="land" d="M917.5 281L919.4 292.3 921.7 289.8 924.2 286.7 927.5 285.2 929.3 282.4 934.6 282.3 936.1 280.3 939.1 278 944.8 278.7 947.5 281.4 949.5 284 948.4 288.5 938.3 284.3 938.1 290.5 936.4 293.1 933.6 296.7 931.6 300 930.1 299.4 928.8 302.9 927.6 306 927.1 308.2 924.8 309.5 921.8 308.4 919.2 307.1 918.4 312.2 916.1 316.7 915.8 320.2 912.9 323.7 911.2 328 912 330.6 911.9 332.7 909.4 334.9 906.9 335 904.9 337 902.8 336.6 902.7 338.6 896.4 341.6 894 340.4 888.8 344 885.8 342.6 883.4 340.9 882 337.2 878.5 337.4 876.3 334.9 873.3 332.4 871.9 329.1 869.2 325.9 868.7 321.3 868.1 319.2 872.4 318 874.2 314.5 873.7 309.5 875.4 304.2 877.9 304.4 878.5 306.9 879.9 305.8 880.1 303.5 880.2 299.3 883.5 294.9 885.6 295 887.9 294 889.7 292.6 893.6 286.7 893.5 284.4 894.3 279.2 895.1 273.1 895 267.8 893.8 265.1 896 263.6 899.5 284.2z"/><path title="Wyoming" class="land" d="M499.2 180.5L495.5 226.8 491.6 272 474.4 270.4 440.2 266.6 423.1 264.4 406.1 262 372.2 256.2 375.9 234.4 385.2 178.6 384.7 178.1 385.1 177.3 387 165.9 418.5 170.6 443.4 174.3 472.3 177.6z"/></svg>