<svg xmlns="http://www.w3.org/2000/svg" enable_background="new 0 0 1000 589" height="589" pretty_print="False" viewBox="0 0 1000 589" width="1000" style="fill:none;stroke-linejoin:round;stroke:#000;version:1"><style>.a{fill:#f9f9f9;stroke-width:1;}</style><defs><style type="text/css">  path { fill-rule: evenodd; }</style></defs><metadata><views><view h="589.235294118" padding="0" w="1000"><proj lat0="45" lon0="-100"/><bbox h="321.97" w="589.33" x="690.1" y="918.7"/></view></views></metadata><path data-name="Massachusetts" data-id="MA" d="m956.3 153.1-0.3-0.2 0 0.3 0.3-0.1zm-2.9-2.6 0.7-0.3 0-0.4-0.7 0.7zm12-7.6-0.1-1.4-0.2-0.8 0.3 2.1zm-42.4-10-0.7 0.3-5.5 1.7-1.9 0.7-2.2 0.7-0.8 0.3 0 0.3 0.3 5 0.3 4.7 0.3 4.3 0.5 0.3 1.7-0.5 7.9-2.3 0.2 0.5 14-5.3 0.1 0.2 1.3-0.5 4.5-1.7 4.3 5.1 0 0 0.6-0.5 0.3-1.5-0.1 2.3 0 0 1 0 0.3 1.2 0.9 1.7 0 0 4.6-5.5 3.8 1.3 0.9-1.9 6.2-3.3-2.6-5.1 0.7 3.3-3.2 2.4-3.6 0.3-7.2-7.7-3.2-4.9 3.2-3.4-3.3-0.2-1.4-3.2-0.1-0.2-5.5 6-12.2 4.1-4 1.3 0 0z" class="a"/><path data-name="Minnesota" data-id="MN" d="" class="a"/><path data-name="Montana" data-id="MT" d="" class="a"/><path data-name="North Dakota" data-id="ND" d="" class="a"/><path data-name="Hawaii" data-id="HI" d="m416.3 515-3-2.2-2.6 0.7 0.6 5.4-3.6 4.5 3.1 7.1 0.9 7.3 3.6 2.3 2.2-3.6 4-2.9 4.9-1.3 5.3-4.6-5.2-4.5-0.1-2.7-10-5.5zm-17.7-7.9-1.5-1.3-1.4 1.8 2.8-0.6zm-7.3-4.2 0.4-3.6-1.8-0.3 1.5 3.9zm6.1-5.9-1.7 0.8 1.2 3.7 2.5 0.2 0.8 3.2 2.7 1.2 6-2.8-5.6-4.7-5.9-1.6zm-12.4-4-0.9 2.6 4.2-0.1 3.9 1-2-3.2-5.1-0.3zm-12.2-7.7-2.2-2.1-4.3 3.3 2.7 5 1.9-2 5.5 1.2-0.5-2.3-3.2-3zm-43.5-4.3 0.6-1.4 1.7-0.9-2.2 2.2zm15.4-8.8-6.8 2.5-0.7 1.8 2.7 1.9 3.8 1 2.7-5.3-1.7-1.9zm-47.1-17.9 0-0.1-0.2 0 0.2 0.1zm-51.4-12.7 0 0.2 0.1 0-0.1-0.2zm-27-4.5 0.1 0.1 0 0-0.1-0.1zm-1.1-1.9 0 0 0 0 0 0zm-0.9-1-0.2 0 0 0.1 0.2-0.1zm0.7 0-0.1 0 0.1 0 0 0zm-0.1-0.1 0 0 0 0.1 0-0.1zm-30.5-25-0.1-0.3 0 0.1 0.1 0.2zm-66.5-21.3-0.3 0.3 0.2 0.1 0.1-0.4zm-70.4-49 0 0 0 0 0 0zm2.4 0.1-0.1 0 0 0 0.1 0zm-0.5-0.1 0 0 0 0 0 0zm-41.4-18.2 0.3-0.1 0-0.2-0.3 0.3z" class="a"/><path data-name="Idaho" data-id="ID" d="" class="a"/><path data-name="Washington" data-id="WA" d="m192.1 77.1 0.1-1.7-0.2 0.1 0.1 1.6zm20.7-8.8 0.6-1-0.7-0.1 0.1 1.1zm-1.8-1.7 0.6-1.9-0.6-0.2 0 2.1zm7.1-2.8-0.1-1.9-1.7 2.5 1.7-0.6zm0.2-4.1 0.3-1.9-0.2-0.5-0.1 2.4zm0.3-9.5-0.1-1.1-0.4-0.1 0.5 1.2zm3.1-6.4-0.9-0.1-1.7 2.7 2.6-2.6zm-2.4-2.6 0.5-0.4 0.1-0.3-0.6 0.7zm-0.5 0.3-0.3-1.9-0.9 1.7 1.2 0.3zm-0.5-2.7-0.9-0.4 0.7 1 0.2-0.6zm2.9 1.7 0-1.3-0.3 0.5 0.3 0.8zm0.9-1.3-0.4-0.3-0.1 0 0.5 0.3zm-5.5-2.1-0.5-0.4-0.2-0.1 0.7 0.5zm3.6-0.4-2.6 0.7 0.7 0.2 1.9-0.9zm-2.1-0.2-0.5-0.6-0.1 0.1 0.6 0.5zm2-1.2-0.4 0 0.5 0.2-0.1-0.2zm-19 49.8 3.5 3.8-0.6 7.3 0.7 1.8 5.2 2.8 14.8 1.4 0.6 1.7 7 0.1 6.6 0.9 10.8-1.2 5.3 0.9 1.5-0.7 27.3 6.2 1.8 0.4-0.2-1 0.4-4.4-0.5-4.2 11.3-50.7-1.6-0.3-22.7-5.3-19.8-5-22.4-6.2-6.7-1.7 1.6 8.4-1.5 2.7-2.6-1.4 2.5 11.7-2.7 3.9-1.3 3.6 0 3.7-5.7 4-2.4-1.6-2.3 1.2 4.3-5.5-1.1 3.8 2.4-2.6 1.9 0.4-0.6-4.9 1.3 0.2 2.6-5.8-0.9-0.9-3.4 4.4-2.2 0.1 2.4-2.7 2.7-0.7-1-5-2.7-0.7-1.4-2.3-1.7 0.9-8.9-3.9-7.9-6.1-2.1 5.9-0.2 2.5 1.7 4.5-1.1 14.5-0.8 2.2 4.4 0.4-4.4 3.1 2.3 1.2-1.8 6.2-0.9-4.9-1.7 5.6 2.2 2.7 2.4-0.2 2.9 1.7 1.5 2.8 1.7 0 0 0z" class="a"/><path data-name="Arizona" data-id="AZ" d="" class="a"/><path data-name="California" data-id="CA" d="m206 363.8 0.4 2.1 0 0.4-0.4-2.5zm-14.3-8.3 0.7 1.5 0.4-0.1-1.1-1.4zm17-0.3 0.3 2.5 1.7 1.3-2-3.8zm-11.7-13.8-1.1-0.3 0.9 0.4 0.2-0.1zm-10.8-2.9-2.6 1.6 0.7 0.7 1.9-2.2zm-5-1.8-0.2 0.8 0.9 0.2-0.7-1zm8.5 1.9 4.3 2.4 0.8-0.7-5-1.7zm-33.1-85.5-0.1 0.1 0.1-0.1 0 0zm10.4 0.5-0.1-0.3 0 0.4 0.1-0.1zm56-73.7-3.8-1-41.5-11.5-15.4-4.7 0 0.4-0.9 9.6-4.1 11.4-6.8 8.4-0.2 4.3 3.3 5.9 1.7 7.8-2.3 6.3 0.4 6.3-1.2 2.6 4 8.6 2.5 3.3-0.2 9.4 6 5.7 3.5-5.8 3.8 3 1.5-1.4-5.2 1-0.1 5 1.1 6.2-2.9-2.8-1.7-3.8-0.5 5.2 1.4 10.4 5.4 6.7-3.6 4.7 0.6 5.9 3.9 6 6.8 18.6 2.1 1.2-0.7 12.9 1.1 1.6 14.6 5.2 4.5 4.8 1.6 3.1 4.3 2.4 4.7 0.9 1.9 5.3 3.9 1.8 5.8 6.9 5.4 9-0.4 8.3 3 4 39.7 3.9 0 0 3.5-0.2 1.6-4.3-3-2.2 0.1-7.1 1.7-0.4 3.5-8.5 2.1-4 5.4-3.2-3-4.1-3.4-9.1 0.2-2.4 0-0.1-2.5-3.4-7.8-10.4-15-21.2-21-30.1-11.8-16.4-11.5-16.5 13.2-56 0.9-3.7z" class="a"/><path data-name="Colorado" data-id="CO" d="" class="a"/><path data-name="Nevada" data-id="NV" d="" class="a"/><path data-name="New Mexico" data-id="NM" d="" class="a"/><path data-name="Oregon" data-id="OR" d="m162.2 162.8 15.4 4.7 41.5 11.5 3.8 1 2.7 0.7 24.6 5.8 13.7 3 2.7 0.6 0.4-2 9.2-38.2-2.6-6.2 0.3-2.4 10.1-13.2 4.8-11.9-3.3-3.6-0.1-1.8 0-0.1-1.8-0.4-27.3-6.2-1.5 0.7-5.3-0.9-10.8 1.2-6.6-0.9-7-0.1-0.6-1.7-14.8-1.4-5.2-2.8-0.7-1.8 0.6-7.3-3.5-3.8-0.3 0.1-0.7 0.5-4.9-2.5-2.9 0.9-1.9-1-2 8.3-1.4 2.3-6 14.7-1.7 8.1-1.1 0.1-5.6 13.4-3.8 5.7-1.4 1-3.5 6.8-0.7 7.2-2.1 6.4 1.3 5.8 0 0.1zm35.5-79.7-0.3-0.9-0.1 0.7 0.4 0.2z" class="a"/><path data-name="Utah" data-id="UT" d="" class="a"/><path data-name="Wyoming" data-id="WY" d="" class="a"/><path data-name="Arkansas" data-id="AR" d="" class="a"/><path data-name="Iowa" data-id="IA" d="" class="a"/><path data-name="Kansas" data-id="KS" d="" class="a"/><path data-name="Missouri" data-id="MO" d="" class="a"/><path data-name="Nebraska" data-id="NE" d="" class="a"/><path data-name="Oklahoma" data-id="OK" d="" class="a"/><path data-name="South Dakota" data-id="SD" d="" class="a"/><path data-name="Louisiana" data-id="LA" d="m689 469.3-1.3 0.3-0.6 0.6 1.8-0.9zm4.1 0-0.7-0.3-0.2 0.3 0.9 0zm2.3-0.8-0.7 0-0.4 0.5 1.1-0.5zm-1.2-0.7-0.2-0.3-0.1 0.3 0.3 0zm7.8-5.1-0.3 0.2 0.5 0-0.2-0.2zm13.6-5.7 0.6-0.8-0.7 0.9 0.1-0.1zm1.9-2.5-0.2 0.1 0 0.1 0.2-0.2zm-49.9 8.5 1.5-1.8-4-1.1-1.7 1.5 4.3 1.5zm40.3-8.4-0.4-0.4-0.1 0.2 0.5 0.2zm1.1-1.7-1-0.3 0.3 1 0.7-0.7zm8-1.7 0-0.3 0 0.1 0 0.2zm1.9-1.3-0.1-0.1 0.1 0.2 0-0.1zm-0.8-0.2-0.2-0.1-0.1 0.3 0.3-0.2zm-6.8-0.3 0.9-0.3 0-0.3-0.9 0.6zm0.5-0.5 0.5-0.5-0.1-0.1-0.4 0.6zm-3.4-3.6-0.2 0.2 0.1 0 0.1-0.2zm-35.8-54.4-0.2 0-36.6 3.4-9.2 0.7-3 0.3 0.1 2.3 1.9 18.7 3.2 4.5 0.1 2.6 3.1 5.4 2.5 8-0.9 4.5-0.7 11.1-1.5 3.6 0.2 0 0.3 2.5-1.7 2.3 12-1.4 9.4 2.6 6.7 0.9 3.4-2.4-1.8-2.4 6.2-1.9-0.2 2.1 3.2-0.8 2.6 4.1 2.2-0.8 5.8 4-3.6 1.3 8.3 2.4 3.1 0 1.8-2.2 4-2.1 2.8 4.1 1.9-3.7-0.6-5.8 5.2 2 0.6 1.7 6.2 0.8 3.1 2.5-0.4 2 4.4-4.1-1.7-2.1-7.3-1.8-2.7-1.6-0.1-2.9 3 0.4 2.3-4.8-3-4.2-1.7 4-3.8-0.7 2.6-4.3-1.7-0.5-4.3 3-6.1 0.4-1.7-1.4 2.8-5 3.3-0.1 5.6 1.8 4.1 0.4 0 0-2.2-2.8-4.3-8.3 1.2-4.7-33.5 3.7 1.3-1.3-1.4-3.5 2-3 1.2-7.6 7.4-12.6-3.6-4.4 0.2-3.2-2.2-5.2 0-0.7z" class="a"/><path data-name="Texas" data-id="TX" d="m574 536.9-4.7-17.6 0 3.3 4.7 14.3zm-1.1-30.9-3.3 6.2-0.4 2 3.7-8.3zm2.6-4.6 3.1-4.1-2.2 1.4-0.9 2.7zm11-9.9-7.3 3.8 2-0.4 5.2-3.4zm1-1.4 2-1.7-0.8 0.2-1.3 1.5zm-115.1-162.9-0.7-0.1-3.3 91-19.2-0.9-30.8-1.7-12.3-0.9 2.4 4.8 0.1 0.1 10.5 10.5 6 7.1 8 5.9 5.6 10.3 2.1 10.8 4.6 3 3.6 4 5.1 1.8 7.5 4.8 3.4 1.3 4.7-4.7 1.5-5 2.4-4.8 7.6-3 2.9 1.5 8.4 0.7 7.7 4.8 5.2 1-1.5 2.7 3 1.9 2.8 3.4 0.6 3.6 1.8 2.4 4.3 10.3 4.3 3.6 3.3 5.4 4.2 4.3 1.8 0.6 1.6 11.1 4.6 2.5 0.2 3.5 1.2-0.3 8 9.7 4 0.9 5 3 7.8 0 5.6 3.1 6.7-1.5-3-2.8-2.7-8.2-1.1-7.1-1.6-2.3 0.7-4.8-2-0.2-2.7-4.5 3.1 3.3 3.6-1.3 1.9-5.1-3.9-5.2 5.8 0.7 2.7-4.2-0.4-1.5 2.4-3.2-0.6 2.8 2.7-2.1-1.1-3.8 3.5 1.8 4.5-2.5-4.4-4.6 2.7 1.1 5 0.3 6.6-1.5 7.4-5 4.5-3.7 0.7-2.7 2.7-2.8-1.5-4.7 0.3-2.9 4.9-2.1-0.4 5.1 2.9 0-3.2 2.7 12.9-6.8 2.1-0.1 1.4-6.2 0.4 0 1.5-3.6 0.7-11.1 0.9-4.5-2.5-8-3.1-5.4-0.1-2.6-3.2-4.5-1.9-18.7-0.1-2.3-0.2-2.4-0.6-8.5-5.8 0.2-1.5-1.6-0.3-0.1-0.1 0-3.8-0.7-4.4-2.8-4.9-2-9.1 2.6-2.4-0.6-3 1.2-3.7 3-9.9-4.7-3.1 4.3-4.6-1.7-4.9-3.1-2.6 2.2-2.5 0.1 0-1.8-6.8-3.2-2.7 1.3-1.4-1.6-7.5-0.8-5.7-5.2-0.9 1.7-4.2-0.2-3.9-3.7-1.7-5.8-0.3-33.2-24.8-0.3-23.5-0.6-0.6 0z" class="a"/><path data-name="Connecticut" data-id="CT" d="" class="a"/><path data-name="New Hampshire" data-id="NH" d="" class="a"/><path data-name="Rhode Island" data-id="RI" d="m946.5 152.1-0.1-2-0.3 0.8 0.4 1.3zm1.9-1.6-1.3-2.4-0.1 2.5 1.4-0.1zm-0.6-3 0.7 1.7 0.9 1.6 0.6-1.2-0.9-1.7-0.3-1.2-1 0 0 0.7zm-10.8-4 0.4 1.1 3 8.4 0.6 2 0.1 2.3 0.2-0.3 4.7-3.7-0.9-6.6 1.9-0.4 0 0-4.3-5.1-4.5 1.7-1.3 0.5z" class="a"/><path data-name="Vermont" data-id="VT" d="" class="a"/><path data-name="Alabama" data-id="AL" d="" class="a"/><path data-name="Florida" data-id="FL" d="m854.7 535.3-0.2 0 0.1 0.1 0.1-0.1zm-0.9-0.1 0 0.1 0.1 0-0.1-0.1zm0.2-0.1 0-0.1 0 0.1 0 0zm-13.2 1.5 0 0 0 0.1 0-0.1zm-0.2 0.1 0-0.1 0 0.1 0 0zm0.1-0.1 0 0 0 0 0 0zm-1 0.1-0.1 0 0 0.1 0.1-0.1zm27.6-6.1-0.1 0 0.1 0.2 0-0.2zm2.6-0.7 0-0.2-0.2 0.3 0.2-0.1zm-1-0.2-0.4-0.4-0.1 0.1 0.5 0.3zm-0.3 0.8-1.2-1.5 0.7 1.3 0.5 0.2zm9.2-5.7 0 0.4 0.2-0.2-0.2-0.2zm1.4-1 0.3-0.5-0.4 0.4 0.1 0.1zm0.3-1-0.1 0 0 0.1 0.1-0.1zm-1.7-0.3-0.1-0.1 0.1 0.1 0 0zm0.9-1.5-0.1-0.1 0 0.2 0.1-0.1zm-2.6-0.1-0.1-0.1 0.1 0.1 0 0zm3.3-2.2-0.2 0.1 0.3 0.1-0.1-0.2zm0.4 0-0.2-0.2 0.1 0.3 0.1-0.1zm-0.7-0.2-0.1-0.1 0 0.2 0.1-0.1zm3.6-0.7 0-0.1-0.2 0.4 0.2-0.3zm-4.1 0.4-0.2 0 0.2 0.1 0-0.1zm2-1.2-0.3 0-0.1 0.1 0.4-0.1zm0.8-0.5 0 0-0.1 0 0.1 0zm-8.2 0.4 0-0.2-0.1 0.2 0.1 0zm0.9-0.3-0.3 0 0.3 0.6 0-0.6zm-2.3 0.1 0-0.6-0.5 0.1 0.5 0.5zm-1.4-1 0.5 0.5 0-0.2-0.5-0.3zm14.3 0.6-1.7 0.8 0.6 0.1 1.2-0.9zm-13.6-0.9-0.6 0 0 0.2 0.6-0.2zm15.3-4.9 0.1-0.5 0.1-1.3-0.2 1.7zm0.1-5.4-0.4-1-0.2 0.4 0.6 0.6zm-22.4 2.4-0.2 0.3 0.5 0.1-0.3-0.4zm-1.8-0.9-0.9 0.3 0.7 0.1 0.2-0.4zm-1.9 0.2 0-0.3-0.1 0.1 0.1 0.2zm-2-0.1-0.6 0.4 0.8 0.4-0.2-0.8zm2.7 0.1-0.1-0.3-0.5-0.1 0.6 0.4zm-12.7-9.5-0.6 0.3 1.2 0.4-0.6-0.7zm-2.3-3.1-0.8-1.2 0.3 0.9 0.5 0.3zm3 1.9-1.4-3.1-1-0.3 2.3 3.4zm-3.9-3.9-0.3-0.8-0.2-0.5 0.5 1.3zm-8.1-10.8-1.7-1.3 0.7 0.7 1.1 0.6zm43.7-6.5-7.1-11.8-0.4 0 7.5 11.8zm-49-18.9-0.3-0.1 0.3 0.2 0-0.1zm-0.6-0.7-0.1 0.1 0.1 0.1 0-0.2zm-0.7-1 0-0.1-0.1 0.1 0.1 0zm0.4-0.4 0.3 0.2 0-0.2-0.3 0zm0.6-0.4-0.4 0.1 0.1 0 0.3-0.1zm-0.7-0.1-0.3-0.3 0.1 0.1 0.2 0.2zm-0.7-1.1-0.2 0 0.3 0.1-0.1-0.1zm0.7-1.2-0.4 0-0.1 0.1 0.5-0.1zm0.4 0.2-0.5-0.5 0.2 0.1 0.3 0.4zm-3.7-4.2-0.2-0.1 0 0.1 0.2 0zm-4.2 0-0.3-0.4 0.1 0.5 0.2-0.1zm-35.3-3.2 2.9-2.2-3.2 2.1 0.3 0.1zm5.8-4.7 0.3-0.3-1.2 0.5 0.9-0.2zm-36.9-6.5-10.6 3.4 5.8-1.7 4.8-1.7zm26.3-16.5-2.8 0.5-41.9 6.8 4.4 10 0.3 0.1-1.1 4 3.1-1.4 3.4-3 5.8-0.2 6.7-2.4 4.6 0.7-1.1 1.7 8.3 2.8 7.2 3.5 1.7 3.9 5.3-1.2 12.6-10.3 4.7 0.2 19 14.4 3.9-0.8 4.1 5.4 0.8 8.6-1.3 5.4 0.6 2.7 3.4 6.8-1.6-5.3 4.4-0.1 0.4 3.9-2.3 6 8.1 11.1 3 0.1-2.5-3.4 3.1 0.4 1.8-1.2-0.8 6.2 4.2 3.3 2.8 7.6 3.8 2.3 4.9 1.3 6.7 8.5 3.5 1.8-4.7 0.3 2.1 2.4 7.7-2.5 3.8-2.1 3.5-12.2-1.7-19-0.4-1.9-9.3-15.5-8-11.3-4.5-9.2 3.8 3.2 0.8-0.6 1.7 8.1 4.3 6.1-4.2-8.2 0.2-3.9-12.5-15.2-3-4.8-4-8.1-2.7-6.8-2.1-2.4-0.5-3.1-0.1-0.1-6.7-0.4-2.6 2-1.5 7.5-1.4-3.5-45.8 5.7-3.3-5.1 0.1-0.1z" class="a"/><path data-name="Georgia" data-id="GA" d="m845.9 396.1-0.1-2.9-0.7 2.5 0.8 0.4zm1.1-4.5-0.4-2.2-0.3 1.4 0.7 0.9zm-45.4-61.1-1.3 0.3-3.7 0.8-13.6 2.8-1.3 0.3-1.4 0.2-7.6 1.5-2 0.4-8.3 1.6-1.7 0.2 0.1 0.2 13 39.6 7.2 12.8-1.7 1.9-1.1 7.6 2.1 3.9 0.2 7.1 2.6 5 0 0.1-0.1 0.1 3.3 5.1 45.8-5.7 1.4 3.5 1.5-7.5 2.6-2 6.7 0.4 0 0-0.6-10.5 1.3-2.2-0.7-4.2 1.4-4 2-2.2-1.5-1.4 3.4-4.2-0.1 0-5.8-5.4-8-11.4-4.4-2-18.7-15.7-4.6-5.8-8.8-3.7-0.5-1.9 2.7-5.3 0 0z" class="a"/><path data-name="Mississippi" data-id="MS" d="m716.8 442.8-0.5 0.1 0 0.1 0.5-0.2zm9-1.2-1.4 0 1.3 0.1 0.1-0.1zm-11.3 1-0.4 0.4 0.1 0.1 0.3-0.5zm9.1-0.8-3.7 0 3.5 0.1 0.2-0.1zm-40.5-92.5 0 0.1-4.1 6.8 0.4 5.2-5.5 6.1 1.5 1.7-3.7 15.5 1.7 3.3-1 0.7 0.1 2.1 0 0.7 2.2 5.2-0.2 3.2 3.6 4.4-7.4 12.6-1.2 7.6-2 3 1.4 3.5-1.3 1.3 33.5-3.7-1.2 4.7 4.3 8.3 2.2 2.8 0-0.1 3.6-4.1 7.6-1.7 7 0.8 1.1-1.4 0-0.1-5-29.9-0.2-21.8-0.6-39.8-1.4-0.9-0.4-0.8-0.2 0-4.9 0.7-8.5 1.2-19.4 2.4-2.1 0.2z" class="a"/><path data-name="South Carolina" data-id="SC" d="" class="a"/><path data-name="Illinois" data-id="IL" d="" class="a"/><path data-name="Indiana" data-id="IN" d="" class="a"/><path data-name="Kentucky" data-id="KY" d="m693.2 317.2-0.3-0.8-0.6-0.2-0.4 1.3 0.1 0.1 1.1-0.1 0.1-0.3zm66.4-63.5-0.2 0.2 1.3 4.8-5.2 4.2-4.3 0.1 1 3.7-6.1 8.1 0.1 2.8-6.9-0.6-2.5 5-4.7-0.7-3.1 2.3-0.6 2.2-5.4-2-4.4 1.5-3.6 0-1.5 2.7-0.4 0.1 0 0.3-1.5 3.3 1.7 2.3-6.1 3.6 1.5 4.3-1.8 2.1-7.5-2-1.9 4.6 0.6 0.6 0.2 0.4-0.9 8-0.4 0.2-2.5 1.6-0.1 0.3 2.8-0.4 19.6-2.6-1-3.9 3.3-0.1 39.5-5.2 27.8-4.7 0.4-0.3 0.7-0.8 7.3-3.9 5.6-7.4 0.8-2.5 3.7-2.9 4.7-5.9 0.7-1-0.3-0.1-2.4 0-3.1-1.7-5.5-6.7-1.9-6.8 0-0.2-0.2-0.2-4.1-2.3-1.8-3.1-3.7 3.6-2.3 0.6-2.9-1.2-2.5 1.9-5.2-2.3-1.4 0.6-5-4.3-2.5-1.3-4.8 0.6-0.8 0.8z" class="a"/><path data-name="North Carolina" data-id="NC" d="m890.2 332.2-1.1 1.1 0.2 0.2 0.9-1.3zm0.8-5.6-0.5 0.8 0.2 0.8 0.3-1.6zm5.8-9-1.5 1-0.8 1.2 2.2-2.1zm12.5-6.1-0.6-0.4-1.3-0.1 1.8 0.5zm-2.6-0.6-0.9 0-1.5 0.8 2.3-0.8zm3 1.1 2.8-7-1.9 2.9-0.9 4.1zm4.2-9.2 1.3-1.8-0.7 0-0.6 1.8zm8.2-7.6-2.1-10.8 1.8 5.6 0.3 5.1zm-11.8-24.6-0.2 0.1-0.3 0.1 0 0 0.1 0 5.3 9 4.2 4.2-9.1-13.4 0 0zm-1.7 0.6-0.8 0.2 0 0 0.2 0.1 1.7 0-0.2-0.6 0 0-0.3 0.1-0.3 0 0 0 0 0.2-0.2 0.1-0.1-0.1 0 0zm-89.8 22.1-0.5 1.5 0.1 4.2-1.1-0.1-2.5 5.1-2.8 0.3-5.2 5.1-2.3-0.9-3 4.5-8 7.2-3.9 1-4.1 3.8-0.2 2.5-3.6 1.9 0.1 4.3 0 1 1.3-0.3 13.6-2.8 3.7-0.8 1.3-0.3 0.3 0 32.2-10.2 5.4 2.8 11 0.4 8.1-1.6 21.6 13.7 0.4-0.3 10-4.1 0.1-5.3 3.6-6.5 3.9-3.7 8.1-5.3 1.1-1.9 2.1 1 1-6.4-1.2 2.2-4.1 1.4-3.9 0.1 4.8-3.5-1.5-1.6 1.7-3.5-9.1-1.5-0.4-0.5 7.8-1.5 2.5 1.3 3.2-0.3 2.6-1.9 1.9-3.8 1.7-0.5-0.3-5.3-2.2-2.1-2.2 2 0.5 5.1-1.7-6.3-1.3-0.3-9.6 4 4.3-4.2 0.2-1.7 4.5-1.1 1.3-3.3 3 1.7-3.2-4.8-2.2-1.9 0 0-38.8 11.1-24.8 6.3-25 4.7-0.1-0.2z" class="a"/><path data-name="Ohio" data-id="OH" d="" class="a"/><path data-name="Tennessee" data-id="TN" d="" class="a"/><path data-name="Virginia" data-id="VA" d="m908.8 271 0.3 0 0.3-0.1 0 0-0.2-0.5-0.4 0.6 0 0zm-3.3-10.9 0 0.5 0.5-0.3-0.5-0.2zm1.7-3.4-0.1-0.8 0 0 0.1 0.8zm-0.6 1.2-0.2 1.3-0.3 0.5 0.5-1.7zm0.9-2.5 0.1-0.6-0.2 0.6 0.1 0zm0.6-2.6 0.3-0.7-0.5 1.7 0.2-1.1zm0.1-1.5 0.4-2.1-0.5 0.5 0.1 1.7zm1.7-9.6 0.2-0.9-0.1 0.2-0.1 0.7zm-0.4-2.2-1.3 0.5-1.9 0.9-0.7 0.9 0.3 0.1-2.3 14.5 0.9 2.3 1.4-6 2.5-7.9 1.2-5.1 0-0.1zm1.9-0.8-0.3 0.1-0.1 0.4-0.5 3 0.4-1.1 0.5-2.4zm-101.4 37.2-0.7 1-4.7 5.9-3.7 2.9-0.8 2.5-5.6 7.4-7.3 3.9-0.7 0.8 1.7-0.3 16.6-3.4 6.6-1.4 5.5-1.6 1.6-0.3 0.1 0.2 25-4.7 24.8-6.3 38.8-11.1 0 0-0.3-0.5-0.1-0.3 0.7 0.7 0 0 0 0 0.8-0.2-0.1-0.1-0.7-3.3 0.5 0.1 1.6 2.9 0 0 0 0 0.3-0.1 0.2-0.1-0.4-0.8-4-6.1-5 0.9-2.2 1.8-2.1-1.9-7.3-2.4-5-0.2 9.8-0.9 5.4 3.7 1.6-2.4-4.4-5.5 3.1 0.2-1.7-4.5-3.9 0.2-9.2-7.5-1.2 0 13 6.4-0.9-4.5 0.9-1.5-6.6-2.5-5.7-0.4-2.8-2.5-2.3 1.5-0.9-6.7 1 0.2-0.2-5.4-0.2-0.2-0.2 0.1-0.2-0.1-0.5-0.4-0.3-0.3-3.1-1.4-3.2-2.3-4.5-1.2-0.3-0.1 0 0.1-0.6 4.1-9-3.9 0.2 5.6-5 9.4-3 3.3-1.9 5.7-5.9-2-2.9 13.2-2.3 4.5-0.4 5.8-1.7 2.8-6.5 1.9-5.3 4.2-2.5 0.4-2.4 2.1-6.1-2.2-1.1-3-0.2-0.1z" class="a"/><path data-name="Wisconsin" data-id="WI" d="m705.8 134.8-2.4 3-1.5 4.4 0.7 2.4 3.2-9.8zm-55.7-22.8 1.5-2-1.1 1-0.4 1.1zm2.2-3.2-0.5-0.6-1.1 0.7 1.6-0.1zm-21.2 5.4-2.2 2.5 1.1 11.6-6.2 5.6-1.2 5.4 3.4 3.1-1 13.4 3.6 2.7 2.3 0.2 7.4 4.5 4.7 4.9 5.9 3 1.4 7.5 0 0.5 0 0 2.8 3.4-0.8 2.6 1 5.7 2.9 4 5.3 2.8-0.1 0.5 0 0 21.2-2.4 7.9-1 13.1-1.8-0.4-1.5 0-4.6-2.6-4.9-0.7-6.1 1.3-6.8-0.7-5.2 2.3-6.5-0.9-1.1 0.2-6 1.3-4.6-1.5-1.6-2.8 1-1.6 4.1-3.7 2.1 1.2-5.1 3.3-4.4 0.2-1.9 0.1-0.1-4.7-4.7 0-6.6-5.2-4.3-7.2-0.5-7.4-1.9-15.9-4.9-3.1-1.7-0.3 0.3-5-0.7-1.7 1 0.7-7.1-8 4.1-9.7 1.6-0.1-0.2zm19-5.1-0.2-0.7-0.7 0.3 0.9 0.4zm-3.5-0.7 0.3-0.6-0.2-0.2-0.1 0.8zm7.1-1.7-0.3-1.4-0.3 1.7 0.6-0.3z" class="a"/><path data-name="West Virginia" data-id="WV" d="" class="a"/><path data-name="Delaware" data-id="DE" d="" class="a"/><path data-name="District of Columbia" data-id="DC" d="" class="a"/><path data-name="Maryland" data-id="MD" d="m911.6 238.3 0.7-5.2-0.6 3.9-0.4 1.7-0.1 0.2 0.3-0.1 0.1-0.4zm0.5-9-0.2 0.1 0.2 0.6 0 1.2 0-1.8 0 0zm-73.4-6 2.2 10.2 4.5-6.3 2.2-0.5 4.3-3 2.9-0.7 0-1.9 3.4-2.6 5.8 0.7 2.8 4.9 0 0 0.3 0.1 4.5 1.2 3.2 2.3 3.1 1.4 0.3 0.3 0.4-0.8 1.7-0.1 1.4 0.8-1.3 2.3 0 0.1-1.8 5.6 6 3.9 6 0.3 4 1.8-1.7-4.7-5.1-1.7-1.3-4 3.2 4.3 2.6 0.4-2.3-2.3-1.8-6.9 0.5-4-2-4.4 2.1-1.7 1.6-5.6-0.6 8.3 1.7 2.8 1.6-3.3 0.9 5.4-1.7 4 4.8 1.7-4.1 1.4 2.1 4 3.5 1.2 1.9-3.4-0.2 4.8 3.3-0.1 2.1 2.4 0.1 0 0.7-0.9 1.9-0.9 1.3-0.5-0.1-0.2 2.5-7.5 0-0.3-0.5-1.9 0-0.1-9.2 2.7-8.1-23-0.4-1.5-1.7 0.5-6.9 2.1-38 10.6-6.9 1.8-1.7 0.5z" class="a"/><path data-name="New Jersey" data-id="NJ" d="m916.8 207.3-0.5-1.2 0 1.2 0.5 0zm1-3.6 0.3-2.9-0.6 2.5 0.3 0.4zm-4-29.8-10.2-2.5-1.7-0.5-1.7-0.4 0 0-4.1 9 1.7 2.1-0.1 6.5 1.8 0.3 3.8 9.9-0.2 0.3-4.8 7 0.5 5.3 11.5 3.9 0.1 4.5 2.6-3.7 0.4-5.3 2.7-1.8-1.1-4 2-4.8 0-10.4-0.7-3.4-4.6 0.1 1.2-4.7 0.7-7.5 0 0z" class="a"/><path data-name="New York" data-id="NY" d="m913.5 181.8-1.5 2-0.4 0.6 1.8-2.6zm13.4-4.8 4.9-4.3 0-0.2-4.9 4.5zm-12.7 3 0-3.3-0.3 1.7 0.3 1.6zm22.5-15.5-1.2-0.3-0.2 0.9 1.4-0.6zm2.6-1.7-0.1 1 0.2-0.6-0.1-0.4zm-2.7 0.1-6.5 6-10 4.3-2.6 2.2-0.2 2.1-2.7 2.2 0.4 2.9 4.2-1.7 6.1-5 6.8-3.6 10.3-9.7-7.3 5.5-2.3 1 3.9-6.4zm3-4.1 0.4-0.6-1.2 1.4 0.8-0.8zm-109.1-3.6-1.6-0.2 1.2 1.6 0.4-1.4zm32.2-29.7 0.2-1.1-0.8 1 0.6 0.1zm0.5-7-0.4 0.2-0.5 1.1 0.9-1.3zm-41.1 55.1 0.7 2.9 5.1 1.3 29.5-8.1 29.7-8.9 5.4 4.2 1.1 2.4 6.3 2.7 0.2 0.4 1.7 0.4 1.7 0.5 10.2 2.5-0.2-0.5 0.9 4 1.9-0.5 1.1-4.4 0-0.1-1.7-1.7 2.5-3.1-1.2-1.5-3.7-14.3-0.2-1-0.5-0.3-0.3-4.3-0.3-4.7-0.3-5 0-0.3-0.2 0.1-4.9-15.9-5.1-8.1-1.5-9.6-4.4-10.2-0.6 0.3-20.3 6.8-4.1 4.4-4.6 8.7 0.2 1.9-6 9.1 3.7 1.3 1.1 6.9-4.3 5.6-12.8 7.8-2.4-1-9.5 1.4-8.8 5.3 0.5 2.8 3.1 2.7-1.7 8.5-7 8.2-0.1 0.1z" class="a"/><path data-name="Pennsylvania" data-id="PA" d="" class="a"/><path data-name="Maine" data-id="ME" d="m946.8 118.4-0.1 0 0.2 0.1-0.1-0.1zm7.2-20.7-0.8-1.2 0 0.6 0.8 0.6zm-1.4-1.1 0-1-0.1-0.6 0.1 1.6zm3.5-4.1-0.2-0.1 0.1 0.3 0.1-0.2zm9.7-4.9-0.2-1.5-0.4 0.7 0.6 0.8zm-2.4 0.6 0.1-1.1-1.2 0.2 1.1 0.9zm3.6-3.2-0.4 0 0 0.2 0.4-0.2zm-4.9 1.5-0.9-0.2-0.1 0.9 1-0.7zm5-3 0.9 0.7-0.3-0.8-0.6 0.1zm-2.6 0.1-0.9 1.7 1.2-0.6-0.3-1.1zm-4.2 0.1-0.4 0.6 0.3 0.9 0.1-1.5zm5.7-3.2-0.1-0.8-0.3 0.5 0.4 0.3zm-0.5 0.4-0.9-0.8 0 0.7 0.9 0.1zm-5.4 2.2-0.2-1.1-0.4 0.9 0.6 0.2zm9.2-3.4-1.5 2.1-0.1-1.6 1.6-0.6zm7.1-6.5-0.7-1-0.4 0.2 1.1 0.8zm2.6-4.4-0.6-0.3-0.1 0.3 0.7 0zm1.3-7.6-0.9 0 1 0.3-0.1-0.3zm1.5 1-0.3-1.7-0.8-0.1 1.1 1.8zm-1.6-1.6-0.2-1.8-0.7 1.3 0.9 0.6zm-56.3 15.2 14.1 33 0.2 0.7 6.1 7.5 0-0.1 1-0.3 0.2-5.5 1.6-1.9 1-5.1-0.9-0.9 1.7-5 5.6-2.6 3.7-4.5 1.4-7.8 5.9-0.4-0.8-4 7.4-2.8 0.5-4.4 1.7 0.4 4.9-4 2.1-5.1-5-5-5.2-1.1-1.9-4 0-2.3-3.2 1-3.6-1.3 0-4-9.7-21-7.1-3.7-7.9 6.6-2.1-0.4-1.8-3.4-2.5 1-3.6 17.9 1.3 5.8 1.1 11.8-2.8 9.1 1.9 1.5-2.3 4.5-2.5-0.4-0.2 0.2z" class="a"/><path data-name="Michigan" data-id="MI" d="m720 138.2-0.5-0.8-0.1 1 0.6-0.2zm1.6-1.7-1.2-1.6-0.2 0.7 1.4 0.9zm1-7-1-0.9 0 0.2 1 0.7zm-2.4 76 12-1.9 3.4-0.7 14.9-2.6 0.3 1.3 1-0.3 6.4-1.4 6.1-1.5 6.2-1.6-0.1-0.3 3.2-6.3-0.3-5.2 3.6-9 2.8 1.7 1.1-2-0.3-7.8-2.6-4.9-3.9-10.3-3.4-3.8-1.7-0.5-6.3 4.4 0.7 0.9-3.3 6.2-3.2-0.6-1-6.5 1.4-0.5 2.8-6.5 0.3-11.5-4.4-9.7-9.7-1.7-1-1.5-9-2.6-4.1 5 0.4 4.4-3.1 3.9 0.7 6-3 2.1 0-7.6-2.7 5.7-3.2 5-2.1 1.7 1.1 5.3-1.4 5.5 0.8 6.9-1 3.4 7 13.4 0.9 5.1-0.9 9.5-4.7 10.7-0.6 0.4zm20.8-87.5-2.5 0.2 1.6 1.2 1-1.4zm-14.8 2.5-0.8 0 0.9 0.4-0.1-0.4zm17-12.3-1-1.6-0.4 0.1 1.4 1.5zm-87.9 7.1 3.1 1.7 15.9 4.9 7.4 1.9 7.2 0.5 5.2 4.3 0 6.6 4.7 4.7 0-0.1 3.8-11 4.6-3.2 3.5-3.9 0.6 3.5 3.6-5.5 8.6-3.3 0.7-1.4 8.7 1.1 3.4 1.7 1.7-4.3 1.6 1 6.8-1.1-1.7-2.7-3-1.7 0.6-6.3-5.9 3.3-5.4-0.7-1.7-4.2 0.6-1.4-7.4 3.5-4.8 0.3-8.5 5.2-1 1.9-5.2-1.3-3.3 1.5-6.6-5.7-14.7-4.5-0.3-1.7-9.4 9-5.3 1.4-7.6 5.7-0.3 0.2zm34.4-22-11.4 5.6 3.8 3.7 1.5-3.7 3.9-4.8 2.2-0.9zM676.8 80l-7.8 5.3-0.4 2.6 6.1-4.5 2-3.5z" class="a"/><path data-name="Alaska" data-id="AK" d="m101.3 543-0.5 0.2 0.4 0.1 0.1-0.3zm3.6 0.6 0 0 0 0.1 0-0.1zm-1.7-1.7 0 0.3 0.2-0.1-0.2-0.2zm-0.9-0.5 0-0.1 0 0 0 0.1zm1.8 1 0-0.2-0.1 0.1 0.1 0.1zm-0.2-0.2 0-0.1-0.2 0 0.2 0.1zm-75.7-63.8-0.1 0.7 0.2 1.9-0.1-2.6zm-0.5-2.6 0.1 0.9 0.1-0.3-0.2-0.6zm76.2 65.2 0.1-0.6-0.4 0.2 0.3 0.4zm11.1 4.8-0.1-0.1 0.2 0.4-0.1-0.3zm-7.2-3.4-1.1-1 0 2.3 1.1-1.4zm2.4 2.1-0.1-0.7-1.7-0.1 1.7 0.8zm5.8 1.4-0.1 0.2 0.2 0-0.1-0.2zm0.4 0.1-0.2 0 0.4 0.1-0.2-0.1zm1.2 0.4-0.1 0-0.1 0 0.2 0zm-85.7-65.8 0.4 0.1 0.3-0.1-0.7 0zm83.6 64.4-0.8-0.1 0.3 0.3 0.5-0.2zm-88.8-72-1.4-0.6-0.1 0.3 1.5 0.3zm91.2 72.2-0.2-0.1 0 0.1 0.2 0zm5.9 1.2-3.8 0.3-0.9 0.4 4.7-0.7zm-104.1-88.6-1.1 0 0.2 0.3 0.9-0.3zm115.8 93.1 0-0.4-0.2 0 0.2 0.4zm5 0.1 0.2-0.2-0.2-0.2 0 0.4zm3.8 1.1 0.2-0.1-0.1 0-0.1 0.1zm-3.1-1.7-0.1-0.4-0.2 0 0.3 0.4zm6.5 1.5-0.1 0.1 0.1 0 0-0.1zm-127.4-98.9-1.5 0.2 1.8 1.7-0.4-1.8zm122.3 97.5 0.2-0.6-0.1 0-0.1 0.6zm16.4-1.5 0.1-0.2-0.2-0.1 0.1 0.3zm-2.4-0.9-3.4 3 2.4-0.2 2.8-2.2-1.8-0.6zm6.1 1.1-0.7-0.2 0.5 0.4 0.2-0.2zm1.4 0.1-1.1-0.3-0.2 0.1 1.3 0.2zm-3.7-1.4-1.1 0 1.8 0.5-0.8-0.5zm4.5 1-0.1-0.2-0.4 0.1 0.5 0.1zm-2.9-1.2-0.4-0.2 0 1.1 0.4-0.9zm12.4 2.4-0.1-0.1-0.2 0 0.3 0.1zm0.2-0.1 0-0.1-0.2-0.1 0.2 0.2zm-1.7-0.6 0.2 0.4 0-0.1-0.2-0.3zm0.9 0-0.9-0.3 1.1 0.8-0.2-0.5zm1.3-1 0 0 0 0.1 0-0.1zm11.6 1.5-0.2-0.4-0.1 0 0.3 0.4zm104.4-6.5-0.2-0.2 0.1 0.2 0.1 0zm-117.6 3 0-0.1-0.1 0.1 0.1 0zm120.5-4.8 0.3 0.4 0.2 0-0.5-0.4zm-106.1 7.3-0.1 0.1 0 0.3 0.1-0.4zm-12-1.7 0.2-0.8-0.1 0-0.1 0.8zm123.8-7.8-0.9 0.5 0.8 0.4 0.1-0.9zm-122 7.3-0.1-0.2 0.1 0.2 0 0zm-7.3-2.1-2.4 0.5-2.1 2.8 4.6-3.3zm17.4 3.7-0.6 0.5 0.6-0.1 0-0.4zm111.9-9.3-0.2-0.4-0.1 0.2 0.3 0.2zm-121.2 6.8-0.7-0.1 0.7 0.7 0-0.6zm114.8-5.5-0.2 0.2 0.2 0.7 0-0.9zm-113.3 5.4-0.3 0.1 0.4 0.3-0.1-0.4zm7.2 2-0.3 0-0.2-0.2 0.5 0.2zm-8-2-0.5-0.3 0.2 0.3 0.3 0zm6.5 1.1-0.9 0.3-0.6 1.6 1.5-1.8zm105.4-6.8 0 0.7 0.4-0.5-0.4-0.2zm-116.9 3.7 0.8-0.2-0.1 0-0.7 0.2zm-1-0.6-0.2-0.2 0 0.1 0.2 0.1zm117.8-3.8-0.2-0.1-0.1 0.3 0.3-0.2zm-106.5 5.8-0.2-0.1-0.2 0.3 0.4-0.2zm105.5-5.6 0.1-0.5-0.2-0.1 0.1 0.6zm-0.8-0.5-0.3 0.4 0.5 0.1-0.2-0.5zm-100.7 4.8-0.2-0.2-0.1 0 0.3 0.2zm100.4-6.5 0.8 0.3 0.3-0.4-1.1 0.1zm1.2-0.7-0.3 0.2 0.5 0.3-0.2-0.5zm-2.2 0.6-0.2-0.4-0.2 0.2 0.4 0.2zm9.7-3.6-1.3 3.6 1.3-0.8 0-2.8zm-115 7.5-0.1 0 0 0 0.1 0zm106.5-6.1-0.9 0.9 0.2 1 0.7-1.8zm-90.4 7.8 0-0.4-0.1 0.2 0.1 0.2zm89.3-8.7 2.8 4.3 6.3 4-1.5-3.4-6-5.1-1.7 0.3zm-93.2 7.2-0.1-0.3-0.2 0.1 0.3 0.2zm96.5-8.8-0.4 1.5 0.7-0.5-0.3-1zm2 0-0.1 1 0.9 0.3-0.8-1.3zm-95.4 7.6-0.5-0.1-0.5 0.2 1-0.1zm10 0.8-0.4 0.7 0.2-0.6 0.2-0.1zm1.5 0.1-0.9 0.1 0.5 0.6 0.4-0.7zm-58.8-12.4 1 0.5-0.2-0.2-0.8-0.3zm38.5 9.6 0.1-0.1-0.1 0.1 0 0zm0.3-0.1 0.1 0 0-0.1-0.1 0.1zm100.4-7.5 0.5 1.8 1-0.6-1.5-1.3zm-97.7 6.4 0.1-0.1 0 0-0.1 0.1zm93.6-5.6 0.5 4.5 1-1-1.5-3.5zm0.5-1.5 2.2 3.1-0.3-2-1.9-1.1zm-6.9 0.8-0.6 1.8 0.8-1.3-0.2-0.6zm-77.7 4.8-0.1-0.1 0.1 0.1 0 0zm9.2 0.2-0.2-0.3 0.2 0.4 0-0.1zm68.6-6.4 3.9 6.4-0.6-4.4-3.3-2zm-63.2 3.4-0.3 0.3 0.5 0.2-0.2-0.5zm-1.3 0.2 0.1-0.3-0.4 0 0.3 0.3zm-1 0-2.5 1.7-3.1 4.1 1.6 1.7 7.2-5.3-3.1-2zm61.2-6.3-0.7-0.4 0 0.6 0.7-0.2zm-61.8 5.1 0.1 0.4 0.7 0.4-0.8-0.8zm63.7-7-1.9 1 1.8 0.6 0.1-1.6zm-1.3 0-0.2-0.2-0.1 0.2 0.3 0zm5.9-1.6-0.8-0.3-0.2 0.6 1-0.3zm-4.2 0.7-0.7-0.1 0 0.2 0.7-0.1zm2.1-0.8 4 5.8-1.1-5.3-2.9-0.5zm-64.1 6.3-2.3 1.7 1.1 1.2 3.1-2.3-1.8-0.6zm-26.4-3.7-0.1-0.1 0 0.1 0.1 0zm-1.1-0.5-0.1-0.5 0 0.2 0.1 0.3zm29.8 1.3-0.2 0.1 0 0.1 0.2-0.2zm-1-0.2-0.1 0-0.2 0.3 0.3-0.3zm2.3-0.8-0.3-0.2 0 0.1 0.3 0.1zm0.8-0.1-0.3-0.2 0 0.1 0.3 0.1zm-1.3-0.3-0.4 0 0 0.1 0.4-0.1zm19.3-1.9 0.1-0.3-0.2 0.2 0.1 0.1zm5.9-3.1 1.2-1.5-0.4 0.3-0.8 1.2zm-11.8-0.2 0.4-0.3 0.1-0.4-0.5 0.7zm0-1.1-0.4 0.3 0.7-0.2-0.3-0.1zm-15.9 0-0.1-0.4-0.1 0 0.2 0.4zm15.5-0.1-0.4 0.4-0.2 0.4 0.6-0.8zm10.7-1.2 0.1 0 0.1 0-0.2 0zm0.5 0-0.2-0.1 0 0.1 0.2 0zm-1.2-0.1 0.1 0.1 0-0.1-0.1 0zm-8 0.6 0.4-0.4-0.5 0.4 0.1 0zm5.9-1.2 0 0 0 0 0 0zm-4.8 0.3-2.3 3.8 3-3.5-0.7-0.3zm-3 0.5-0.3-0.4-0.1 0.2 0.4 0.2zm7.4-0.9-0.2-0.1 0.1 0.1 0.1 0zm2.5 0.2 0-0.7-0.2 0.3 0.2 0.4zm-71.2-7.5-4.7-0.2 3.2 3.4 1.5-3.2zm66.3 6.9 0.2 0.7 0.5-0.8-0.7 0.1zm-3.9-0.1-0.3 2.1 0.5-1.4-0.2-0.8zm-84.3-16.1 0.1-0.4 0 0-0.1 0.4zm83.3 14.8 0.1 0.3 0.2-0.1-0.3-0.2zm-0.5 0.4-0.2-0.6-0.3 0.2 0.5 0.4zm4.6-1.2 0-0.4-0.3 0.2 0.3 0.2zm-4.4-0.6 0 1 0.3-0.7-0.3-0.3zm-7.4-1.2 0-0.3 0 0 0 0.3zm-50.7-12 0.2-0.6-0.1 0.1-0.1 0.5zm0.3-1-0.1-0.1-0.1 0.1 0.2 0zm4.3-2.3 0-0.1 0 0 0 0.1zm0-0.4-0.1-0.2 0 0 0.1 0.2zm1.7-2.5 0 0-0.1 0 0.1 0zm0.6 0.2-0.4-0.2 0 0.1 0.4 0.1zm-0.6-0.4 0-0.2-0.2 0.2 0.2 0zm-15.5-4.6-0.2-0.5-0.1-0.3 0.3 0.8zm1.5-1.7 0.1 0 0.1 0.1-0.2-0.1zm-2.6-0.5-0.8-1 0.6 0.8 0.2 0.2zm-1.6-1.6-0.2 0 0.3 0.1-0.1-0.1zm0.2-1.1 0 0 0 0 0 0zm-0.2-0.1 0 0 0.2 0.1-0.2-0.1zm25.7 7.7-1.1 0.1 0.6 0.3 0.5-0.4zm-26.8-9.4-0.8 2.9 2.4 0.4 3.2 3.3 1.9-0.9-6.8-5.7zm17 1.2 0-0.2 0 0.1 0 0.1zm-4.9-10.3-0.2-0.1 0.1 0.1 0.1 0zm2.8 1 0.3-0.1-0.1 0-0.2 0.1zm1.9-0.6 0.3 0 0.9-0.4-1.2 0.4zm3.5-1.1 0.2-0.2-0.3 0.2 0.1 0zm0.5-0.1 0.6-0.3-0.5 0.1-0.1 0.2zm1.5-0.6-0.5 0.1 0 0.1 0.5-0.2zm0.6-0.1 0 0 0 0 0 0zm61.7-17.5-0.4-0.3-0.7-0.3 1.1 0.6zm-50.9-2.1 0.9-1.2-0.5 0.4-0.4 0.8zm1.2-1.4 0.4-0.6-0.2 0.2-0.2 0.4zm0.6-0.8 0.7-0.6-0.4 0.2-0.3 0.4zm30.6 0.2 0.5 0.5 0.3 0-0.8-0.5zm-15.6-6.4-4 3.3-2.4-0.7-5.6 3.2-1.1-0.7-6.4 7.2-6.5 1.5 0.6 3.5 2.9 4 5.4 5.2-0.9 2 4.1 1.7-2.1 0.4-2.6-2 1.4 3-1.7 1.1-5.5-5-4.4 0.8-7.5 2.8 3.4 3.8-0.5 2.3 2.2 2.7 7.4 2.9 5.3-2.7 0.9 2-1.5 6.1-4.5 0-5.2 2.3-0.3-1.7-2.7 1.1-1.3 2.8-4.5 3.4 0 5 1.7 0.8-1.4 4.2 5.8 5 3.7-1.6-0.8 6.2 1.1 1.4 4.5 1 1.7 1.8 3.9 0.3 1.8 1.9 4-1.2-1.8 2.5-1.5 5.1-11.8 7.7-1.6 1.6-2.2-0.9-3.6 0.9-5.1 3.4 8.1-2.3 1.2 1.7 10.4-3.4 0.3 1.4 4.1-4.1 8.5-5.9 0.7 0.4 7.5-5.9-1.9-2.3 2.5-4.2 6.6-7.9 5-1 1.6 1.1-6.1 1.7-1.7 6.5 0.2 3.5 2.1-0.2 10.3-6.2 0.8-2.3-0.9-3.6 3.1 0.8 2.2-1.5 6.4 3.9-0.5 1.1 14.6 1.8 3.4-1.1 1 1.5 12.6 6 2.1-1.3 0.2-7.3 1.7 3.3 8.2 5.9 0.7 2.4 7.1 4 1.8 5.1 1.7-4 3.6 7 2.4-4-1.9-5-7.5-0.8-11.5-11-6.2-4.6-4.8 4.7-2.8 0-6.5-4.3-6.4-0.3-9.1-57.6-1.6-2.7-3.7-2.2-5.5 1.1-4.3-0.9-5.4-2.1-5.7 0.4-1.5-2.7-4.6-0.7-0.8-1.7-2 2.3-0.6-4.4z" class="a"/></svg>